<?xml version="1.0" encoding="utf-8"?>
<!-- Generator: Adobe Illustrator 19.2.0, SVG Export Plug-In . SVG Version: 6.00 Build 0)  -->
<svg version="1.1" id="Capa_1" xmlns="http://www.w3.org/2000/svg" xmlns:xlink="http://www.w3.org/1999/xlink" x="0px" y="0px"
	 viewBox="0 0 100 100" style="enable-background:new 0 0 100 100;" xml:space="preserve">
<style type="text/css">
	.st0{fill:#FFCE00;}
	.st1{fill:#37474F;}
</style>
<g>
	<g id="Layer_5_58_">
		<g>
			<g>
				<path class="st0" d="M74.1,31.3c-2.9-1.2-3.7-1.9-3.7-3.1c0-1,0.8-2.2,2.9-2.2c1.9,0,3.4,0.8,3.4,0.8c0.2,0.1,0.3,0.1,0.5,0.1
					c0.4,0,0.8-0.3,0.9-0.6l0.5-1.4c0.2-0.5-0.1-0.9-0.5-1.1c-1.2-0.5-3.5-0.9-3.5-0.9s-0.2,0-0.2-0.2v-2c0-0.6-0.5-1.1-1.1-1.1
					h-0.9c-0.6,0-1.1,0.5-1.1,1.1v2.1c0,0.2-0.2,0.2-0.2,0.2c-2.9,0.7-4.7,2.8-4.7,5.5c0,3.4,2.8,4.9,5.8,6c2.4,0.9,3.4,1.9,3.4,3.3
					c0,1.5-1.4,2.6-3.4,2.6c-1.7,0-4-1.1-4-1.1c-0.1-0.1-0.3-0.1-0.5-0.1c-0.4,0-0.8,0.3-1,0.7l-0.5,1.4c-0.2,0.5,0.1,0.9,0.5,1.1
					c1.4,0.7,4.1,1.2,4.3,1.2c0,0,0.2,0.1,0.2,0.2v2.1c0,0.6,0.5,1.1,1.1,1.1h1c0.6,0,1.1-0.5,1.1-1.1v-2.2c0-0.2,0.1-0.2,0.2-0.2
					c3.1-0.7,5-3,5-5.8C79.6,34.7,78,32.8,74.1,31.3z"/>
				<path class="st0" d="M72.9,7.5C58.7,7.5,47.2,19,47.2,33.2C47.2,47.5,58.7,59,72.9,59s25.7-11.5,25.7-25.7
					C98.6,19.1,87.1,7.5,72.9,7.5z M72.9,53C62,53,53.2,44.2,53.2,33.3S62,13.5,72.9,13.5s19.8,8.8,19.8,19.8S83.8,53,72.9,53z"/>
			</g>
			<g>
				<path class="st1" d="M93.4,71.4c-5.5,3-13,5.8-20.5,7c-6.7,1-19.2-1.5-19.2-4.5c0-1.1,11,2.8,17.7,1c5.1-1.4,4.4-6.1,1.6-6.8
					c-2.8-0.6-18.9-6.6-25.9-6.8c-3.3-0.1-11.3,1.1-15.2,1.8c-1.3,0.2-2.2,0.2-2.3,1.5c-0.4,5.9-1.2,18-1.6,24.4
					c0,0.1,0.2,1.9,1.7,0.7c1.6-1.4,3.9-2.9,6-2.4c3.3,0.8,31.9,6,35.9,5.1c5.6-1.3,21.6-10.8,24.7-13.7
					C101.1,74.1,97.4,69.2,93.4,71.4z"/>
				<path class="st1" d="M21.8,63l-15-0.7c-1.2-0.1-2.3,0.8-2.6,1.9L1.4,88.9C1.1,90,1.9,91,3,91h16.6c1.2,0,2.2-0.9,2.3-2l1.8-23.8
					C23.8,64,22.9,63,21.8,63z M12.9,87.8c-2.3,0-4.1-1.9-4.1-4.1c0-2.3,1.9-4.1,4.1-4.1s4.1,1.9,4.1,4.1
					C17.1,85.9,15.2,87.8,12.9,87.8z"/>
			</g>
		</g>
	</g>
</g>
</svg>
