<?xml version="1.0" standalone="no"?>
<!DOCTYPE svg PUBLIC "-//W3C//DTD SVG 20010904//EN"
 "http://www.w3.org/TR/2001/REC-SVG-20010904/DTD/svg10.dtd">
<svg version="1.0" xmlns="http://www.w3.org/2000/svg"
 width="16.000000pt" height="16.000000pt" viewBox="0 0 16.000000 16.000000"
 preserveAspectRatio="xMidYMid meet">
<metadata>
Created by potrace 1.11, written by Peter Selinger 2001-2013
</metadata>
<g transform="translate(0.000000,16.000000) scale(0.006178,-0.006178)"
fill="#000000" stroke="none">
<path d="M768 2355 c-2 -2 -23 -5 -48 -8 -67 -7 -110 -18 -110 -29 0 -5 -4 -7
-9 -4 -5 3 -21 -7 -37 -22 -15 -15 -24 -20 -20 -12 5 8 -4 1 -18 -17 -15 -18
-28 -36 -28 -40 -1 -4 -12 -19 -24 -32 -13 -14 -21 -28 -18 -33 3 -4 -2 -11
-10 -14 -9 -3 -14 -10 -11 -14 3 -5 1 -11 -5 -15 -6 -4 -8 -11 -5 -16 4 -5 1
-9 -6 -9 -7 0 -10 -3 -6 -6 3 -4 -1 -13 -9 -21 -8 -8 -12 -18 -9 -23 3 -5 1
-11 -5 -15 -5 -3 -10 -15 -10 -26 0 -10 -5 -19 -12 -19 -6 0 -8 -3 -5 -7 4 -3
2 -12 -4 -20 -6 -7 -9 -13 -6 -13 3 0 0 -12 -8 -27 -8 -15 -12 -30 -9 -35 3
-4 0 -8 -6 -8 -6 0 -8 -4 -5 -10 3 -5 3 -16 -2 -22 -4 -7 -8 -15 -9 -18 -4
-20 -18 -67 -23 -75 -3 -5 -6 -14 -7 -20 -10 -48 -13 -60 -15 -62 -1 -2 -3 -7
-4 -13 -1 -5 -4 -13 -5 -17 -1 -5 -3 -12 -5 -18 -1 -5 -3 -12 -4 -15 -2 -3 -4
-14 -6 -25 -2 -11 -6 -31 -10 -45 -3 -14 -9 -41 -12 -60 -3 -19 -9 -36 -13
-38 -5 -2 -6 -10 -4 -17 3 -8 2 -20 -2 -27 -4 -6 -9 -21 -10 -32 -5 -37 -11
-71 -14 -71 -1 0 -3 -11 -4 -25 -3 -25 -9 -58 -27 -155 -9 -49 -11 -51 -45
-53 -51 -4 -55 -5 -74 -22 -19 -17 -19 -45 1 -80 7 -14 13 -29 14 -35 0 -5 5
-10 10 -10 6 0 19 -7 31 -15 18 -13 20 -25 20 -96 -1 -67 2 -86 18 -103 24
-26 37 -26 62 -2 40 39 54 60 54 81 0 6 6 10 14 10 19 0 136 -62 136 -72 0 -5
4 -6 10 -3 5 3 10 1 10 -6 0 -7 3 -10 6 -6 3 3 24 -5 45 -19 21 -13 43 -24 49
-24 5 0 10 -5 10 -11 0 -5 5 -7 10 -4 6 3 10 1 10 -5 0 -6 4 -9 9 -5 5 3 15 0
23 -7 7 -7 20 -14 28 -16 8 -2 18 -8 21 -14 3 -5 9 -9 13 -9 3 1 37 -14 75
-33 38 -19 71 -32 75 -29 3 3 16 7 28 8 13 1 31 5 40 9 9 4 22 8 30 10 7 1 19
5 26 9 6 5 12 5 12 1 0 -3 11 1 25 10 14 9 25 14 25 11 0 -4 46 12 115 40 11
4 23 7 28 7 4 -1 7 3 7 9 0 5 5 7 10 4 6 -3 10 -1 10 5 0 6 3 9 8 6 9 -6 165
76 169 89 2 6 -14 11 -35 12 -39 2 -117 11 -117 13 0 1 -21 5 -80 14 -16 3
-30 5 -30 6 0 1 -11 3 -25 5 -14 2 -36 6 -50 10 -14 3 -29 7 -35 9 -5 1 -19 5
-30 9 -11 3 -31 9 -45 11 -66 14 -115 28 -126 36 -6 6 -14 7 -17 3 -4 -3 -13
0 -22 7 -8 7 -15 10 -15 6 0 -3 -12 -1 -27 5 -16 6 -39 13 -52 15 -14 3 -29 8
-35 12 -6 4 -13 7 -16 8 -3 1 -20 5 -37 9 -18 4 -33 11 -33 16 0 5 -7 6 -15 3
-8 -4 -15 -1 -15 5 0 6 -7 8 -15 5 -8 -4 -15 -2 -15 4 0 5 -6 9 -12 9 -30 -1
-77 16 -83 31 -7 18 25 112 38 112 4 0 6 4 3 9 -7 11 24 91 35 91 5 0 6 7 3
15 -4 8 -1 15 5 15 6 0 10 3 10 8 -1 4 0 10 1 15 1 4 3 10 4 15 7 29 19 52 27
52 6 0 7 5 4 10 -4 6 3 26 15 45 11 18 23 44 25 56 3 12 10 26 17 31 7 4 9 8
4 8 -5 0 -1 9 9 20 10 11 15 20 11 20 -10 0 15 44 30 53 8 4 14 15 14 23 0 15
68 124 85 136 5 4 6 8 2 8 -5 0 -2 7 5 15 7 8 21 25 31 37 41 54 48 62 41 49
-5 -9 -3 -12 4 -7 7 4 12 12 12 17 0 5 5 15 10 22 6 7 18 21 26 32 9 11 12 14
8 6 -5 -9 -3 -12 4 -7 7 4 12 13 12 20 0 8 8 20 18 27 16 13 16 13 2 -6 -14
-19 -14 -19 3 -6 9 7 17 20 17 27 0 8 6 14 13 14 7 0 19 9 27 20 8 11 20 20
28 20 7 0 10 5 7 10 -3 6 -1 10 5 10 6 0 18 6 25 13 8 6 22 18 32 26 10 8 29
24 42 35 15 13 21 15 17 6 -5 -9 -2 -8 7 3 8 9 17 17 21 17 4 0 27 14 51 30
24 17 48 30 54 30 6 0 19 10 31 22 11 12 20 19 20 15 0 -4 14 -1 30 8 17 9 30
18 30 22 0 3 -3 3 -6 0 -4 -3 -14 -2 -24 3 -9 5 -28 11 -41 13 -13 3 -44 10
-68 17 -25 6 -56 13 -70 15 -14 2 -26 4 -26 5 0 1 -13 4 -30 5 -16 2 -43 6
-60 9 -16 3 -59 9 -95 12 -36 3 -77 7 -92 8 -15 2 -29 2 -30 1z"/>
<path d="M1450 2208 c0 -6 -3 -9 -6 -6 -6 7 -188 -81 -232 -111 -15 -10 -52
-34 -82 -54 -30 -19 -72 -48 -92 -65 l-38 -30 148 0 c81 0 174 -3 207 -6 138
-13 173 -17 225 -26 30 -5 78 -12 105 -15 28 -3 59 -8 70 -10 23 -6 55 -11
145 -25 86 -14 108 -18 150 -25 79 -14 171 23 155 64 -4 9 -7 21 -8 26 -4 21
-93 90 -109 84 -2 0 -16 5 -33 11 -16 7 -38 13 -49 16 -10 2 -24 8 -31 14 -7
6 -17 10 -21 8 -5 -1 -19 3 -31 10 -12 6 -30 13 -40 15 -10 2 -28 9 -40 15
-13 7 -23 10 -23 6 0 -3 -7 -1 -15 6 -8 6 -19 9 -25 5 -5 -3 -10 -2 -10 3 0 7
-55 28 -100 38 -3 0 -17 6 -31 12 -22 8 -80 27 -121 38 -5 1 -9 3 -10 4 -10 9
-58 7 -58 -2z"/>
<path d="M2479 2012 c-14 -9 -33 -24 -41 -32 -19 -19 -142 -238 -213 -377 -12
-23 -28 -49 -35 -58 -7 -8 -9 -15 -6 -15 4 0 2 -6 -4 -12 -16 -20 -55 -80 -71
-113 -26 -50 -122 -198 -147 -225 -12 -14 -25 -33 -28 -42 -3 -10 -10 -18 -15
-18 -6 0 -7 -4 -4 -10 3 -5 2 -10 -3 -10 -5 0 -21 -17 -34 -37 -14 -21 -38
-51 -54 -67 -16 -16 -22 -26 -14 -21 13 8 13 6 2 -8 -8 -9 -17 -15 -20 -14 -4
1 -8 -2 -9 -6 -1 -4 -23 -25 -47 -46 -25 -21 -42 -42 -39 -45 4 -3 2 -6 -4 -6
-6 0 -32 -19 -58 -42 -26 -24 -57 -50 -69 -58 -12 -8 -28 -21 -36 -30 -11 -12
-12 -12 -5 -1 6 8 -17 -6 -49 -32 -33 -25 -63 -44 -67 -42 -4 3 -10 -2 -13
-11 -3 -8 -10 -13 -16 -9 -5 3 -18 -3 -30 -15 -11 -11 -22 -20 -25 -21 -27 -5
-45 -13 -45 -20 0 -5 -3 -8 -7 -7 -13 3 -53 -13 -53 -21 0 -4 -10 -7 -22 -8
-11 -1 -25 -8 -29 -15 -5 -7 -9 -9 -9 -5 0 4 -10 2 -22 -5 -13 -6 -32 -13 -43
-15 -10 -2 -22 -8 -26 -14 -3 -6 -9 -10 -13 -10 -3 1 -7 1 -8 0 -2 0 -11 -2
-21 -4 -10 -2 -26 -7 -35 -11 -9 -4 -20 -8 -24 -8 -3 -1 -10 -4 -14 -9 -7 -6
9 -11 29 -8 4 0 7 -3 7 -9 0 -5 4 -10 9 -10 5 0 20 -4 33 -9 13 -5 27 -9 31
-9 4 0 18 -7 30 -15 23 -14 76 -32 90 -29 4 1 7 -2 7 -6 0 -5 7 -9 15 -10 8
-1 22 -3 30 -4 8 -1 15 -5 15 -9 0 -4 17 -10 38 -15 42 -8 42 -8 62 -17 8 -4
24 -8 35 -10 11 -1 25 -5 30 -9 6 -3 32 -9 59 -12 27 -4 53 -9 57 -12 14 -8
187 -3 197 6 1 1 5 3 10 4 24 4 72 30 72 39 0 6 3 8 6 4 7 -6 85 66 87 79 0 5
13 20 29 34 15 13 28 30 28 36 0 7 7 15 16 18 8 3 12 10 9 16 -3 5 -2 10 2 10
9 0 46 57 41 62 -2 2 7 14 20 28 12 13 22 28 22 32 0 5 11 26 25 48 14 22 23
40 19 40 -3 0 4 13 15 28 11 16 21 35 23 43 2 8 7 17 11 20 5 3 10 12 11 20 1
8 19 50 40 94 20 44 41 89 46 100 16 36 92 220 94 230 3 9 7 20 23 63 3 9 5
20 5 25 -1 4 2 7 6 7 5 0 9 6 9 13 1 6 13 44 28 82 15 39 56 158 92 265 55
167 64 203 61 248 -7 76 -49 108 -99 74z"/>
</g>
</svg>
